<?xml version="1.0" standalone="no"?>
<!DOCTYPE svg PUBLIC "-//W3C//DTD SVG 20010904//EN"
 "http://www.w3.org/TR/2001/REC-SVG-20010904/DTD/svg10.dtd">
<svg version="1.0" xmlns="http://www.w3.org/2000/svg"
 width="1997.000000pt" height="1080.000000pt" viewBox="0 0 1997.000000 1080.000000"
 preserveAspectRatio="xMidYMid meet">

<g transform="translate(0.000000,1080.000000) scale(0.100000,-0.100000)"
fill="#000000" stroke="none">
<path d="M4033 7473 c53 -2 141 -2 195 0 53 1 9 3 -98 3 -107 0 -151 -2 -97
-3z"/>
<path d="M1268 7463 c61 -2 163 -2 225 0 61 1 11 3 -113 3 -124 0 -174 -2
-112 -3z"/>
<path d="M3655 6833 c-33 -7 -71 -16 -85 -19 -41 -10 -148 -53 -198 -81 -53
-29 -130 -91 -179 -143 -46 -49 -99 -156 -107 -213 -7 -60 9 -140 40 -193 41
-70 158 -148 257 -170 4 -1 8 -3 10 -4 7 -6 94 -13 182 -13 196 -1 373 58 523
175 70 54 121 114 159 188 25 48 28 66 28 145 0 87 -1 92 -36 146 -37 56 -104
113 -169 142 -111 51 -301 68 -425 40z"/>
<path d="M5955 6065 c-66 -7 -178 -16 -250 -19 -71 -4 -193 -15 -270 -26 -77
-10 -151 -19 -165 -19 -32 1 -102 -8 -210 -26 -47 -8 -110 -16 -140 -19 -30
-3 -92 -12 -138 -21 -45 -9 -88 -13 -94 -9 -7 5 -8 3 -3 -6 6 -10 2 -11 -17
-7 -15 4 -68 -4 -124 -17 -54 -14 -101 -23 -106 -20 -12 8 -248 -110 -353
-176 -255 -161 -508 -392 -604 -551 -36 -60 -75 -138 -70 -142 5 -5 163 26
211 42 18 6 46 12 61 15 15 3 54 12 85 22 31 9 67 18 79 19 11 2 47 11 80 20
32 10 67 19 79 20 11 2 45 10 75 19 60 18 170 46 209 53 14 3 57 14 95 26 39
12 77 22 85 23 8 1 41 9 72 18 31 10 70 19 85 22 15 3 46 12 69 20 22 8 44 14
50 13 5 -1 16 0 24 3 20 7 106 31 210 58 87 22 174 46 270 75 30 9 66 18 80
20 14 2 79 20 145 39 66 20 129 38 140 40 11 3 40 11 64 20 24 9 47 13 52 10
5 -3 9 -1 9 3 0 8 46 23 120 39 33 8 273 81 326 100 23 8 50 16 60 19 36 7
297 98 359 125 165 72 200 94 190 122 -10 25 -77 45 -187 57 -127 14 -502 12
-653 -4z"/>
<path d="M3885 5884 c-55 -8 -129 -16 -165 -19 -36 -2 -101 -11 -145 -20 -44
-9 -97 -18 -118 -21 -21 -2 -64 -10 -95 -18 -31 -8 -75 -17 -97 -20 -22 -4
-60 -13 -85 -21 -25 -8 -61 -17 -80 -19 -19 -3 -57 -12 -85 -20 -27 -8 -61
-17 -75 -20 -14 -2 -54 -13 -90 -24 -36 -11 -101 -29 -145 -41 -44 -12 -98
-28 -120 -36 -22 -7 -101 -32 -175 -55 -74 -23 -151 -48 -170 -55 -19 -7 -61
-23 -92 -35 -31 -12 -60 -21 -63 -21 -3 1 -18 -5 -33 -13 -15 -8 -63 -31 -107
-51 -171 -79 -211 -102 -267 -154 -47 -43 -58 -59 -58 -85 1 -41 24 -69 85
-102 49 -26 197 -66 245 -66 14 0 74 -7 133 -14 62 -8 200 -14 327 -14 121 0
220 -2 220 -5 0 -3 -10 -22 -23 -43 -33 -53 -132 -257 -155 -322 -41 -111 -51
-150 -82 -324 -34 -195 29 -422 162 -580 99 -117 304 -204 513 -218 55 -4 260
14 302 27 26 7 65 16 86 19 21 3 54 13 74 21 19 8 45 17 57 19 12 2 42 13 66
24 25 11 70 30 100 42 92 37 249 123 355 194 234 157 549 452 574 538 7 22 10
42 7 45 -6 6 -61 -27 -91 -54 -32 -29 -93 -73 -101 -73 -4 0 -15 -7 -25 -16
-27 -24 -210 -125 -274 -150 -208 -83 -309 -106 -470 -108 -224 -2 -354 41
-473 157 -107 105 -152 222 -152 397 0 168 50 325 164 520 154 264 424 537
716 725 41 26 87 56 102 67 15 10 39 23 53 28 80 31 -56 38 -230 14z"/>
<path d="M9464 4755 c-4 -8 -4 -421 -2 -918 l4 -902 156 -3 155 -2 6 301 c4
166 7 369 7 450 l0 148 33 24 c59 45 118 68 201 79 75 10 86 9 121 -8 21 -10
48 -32 59 -47 20 -28 21 -44 26 -485 l5 -457 157 -3 156 -2 7 107 c5 60 5 276
1 481 -7 359 -8 375 -32 444 -27 79 -38 100 -80 142 -65 65 -209 102 -334 85
-104 -15 -156 -36 -267 -111 -23 -15 -46 -28 -52 -28 -8 0 -11 109 -11 354 l0
354 -22 6 c-13 3 -83 6 -156 6 -109 0 -134 -3 -138 -15z"/>
<path d="M10759 4763 c0 -5 0 -343 1 -753 1 -807 3 -843 56 -937 63 -114 116
-135 357 -141 l178 -4 -3 99 -3 98 -85 30 c-108 38 -134 56 -157 108 -17 39
-18 92 -23 772 l-5 730 -157 3 c-87 1 -158 -1 -159 -5z"/>
<path d="M6020 4495 l0 -145 214 0 c118 0 221 -3 230 -6 14 -6 16 -68 16 -604
0 -328 3 -645 7 -703 l6 -107 160 0 160 0 -7 696 c-5 519 -4 700 5 710 9 11
57 14 240 14 l229 0 0 145 0 145 -630 0 -630 0 0 -145z"/>
<path d="M11486 4608 c-12 -17 -16 -50 -16 -140 0 -161 -3 -158 176 -158 74 0
144 5 155 10 17 10 19 22 19 148 0 94 -4 142 -12 150 -8 8 -58 12 -159 12
-141 0 -149 -1 -163 -22z"/>
<path d="M15158 4190 c-48 -12 -137 -57 -207 -104 -30 -20 -55 -35 -57 -34 -1
2 -17 31 -34 66 l-31 62 -129 0 -130 0 0 -620 0 -620 164 0 165 0 -6 440 c-7
506 -17 455 102 515 68 35 80 38 168 39 93 1 96 0 126 -28 47 -45 49 -62 50
-583 l1 -383 161 0 160 0 -3 498 -3 497 -37 75 c-42 86 -71 116 -147 156 -48
25 -66 28 -165 31 -61 1 -128 -2 -148 -7z"/>
<path d="M8650 4181 c-105 -9 -167 -36 -226 -96 -93 -96 -124 -203 -131 -450
-12 -416 50 -598 230 -681 l62 -29 240 1 c255 1 330 10 415 54 l40 20 0 100 0
100 -77 -8 c-43 -4 -168 -7 -278 -7 -180 0 -203 2 -228 19 -67 45 -94 177 -84
410 10 229 29 274 125 302 55 16 126 16 497 0 l30 -1 0 99 0 100 -50 13 c-69
19 -292 50 -395 56 -47 3 -123 2 -170 -2z"/>
<path d="M13695 4179 c-271 -40 -353 -156 -371 -524 -13 -266 23 -496 94 -600
63 -91 181 -135 361 -135 195 1 401 18 491 42 l85 23 3 114 c2 98 1 113 -13
108 -39 -16 -246 -28 -400 -25 -186 3 -228 14 -267 69 -25 33 -44 159 -26 171
7 4 119 8 248 8 129 0 251 4 270 9 92 23 151 64 182 125 46 91 43 327 -7 439
-29 66 -97 129 -161 150 -100 33 -349 46 -489 26z m331 -271 c24 -23 28 -37
32 -106 8 -139 -13 -152 -248 -152 -138 0 -161 2 -167 16 -11 29 14 185 34
213 38 51 76 62 205 59 112 -3 119 -4 144 -30z"/>
<path d="M16122 4174 c-149 -40 -235 -171 -262 -399 -16 -140 -9 -411 14 -515
38 -167 118 -269 244 -311 60 -20 79 -21 300 -16 199 4 247 8 302 25 127 39
120 30 120 149 l0 104 -33 -6 c-56 -11 -409 -21 -471 -14 -76 9 -105 32 -136
105 -24 56 -25 68 -25 259 0 159 4 212 17 259 21 69 27 78 76 103 33 16 61 18
242 16 112 0 228 -4 256 -8 l53 -6 3 101 3 101 -35 9 c-19 5 -53 14 -75 20
-134 36 -496 50 -593 24z"/>
<path d="M17310 4180 c-128 -15 -236 -84 -286 -183 -46 -89 -59 -189 -59 -447
1 -212 3 -244 24 -325 37 -146 88 -216 190 -263 52 -24 69 -27 231 -30 213 -5
430 12 523 41 l67 21 0 109 0 110 -42 -7 c-100 -16 -322 -27 -431 -20 -184 10
-232 46 -239 179 l-3 60 260 5 c234 5 265 7 308 26 109 46 153 109 168 242 15
132 -23 316 -76 374 -86 93 -177 119 -409 117 -89 -1 -190 -5 -226 -9z m289
-239 c64 -13 89 -43 97 -118 16 -151 -1 -163 -246 -163 l-173 0 7 91 c8 101
21 137 62 164 46 30 167 42 253 26z"/>
<path d="M7395 4166 c-133 -22 -225 -82 -273 -178 -12 -25 -31 -90 -43 -144
-18 -88 -20 -125 -17 -339 4 -230 5 -243 32 -324 44 -133 89 -190 181 -233 49
-22 57 -23 340 -22 193 1 305 5 335 13 25 7 69 19 98 27 l52 15 0 111 0 110
-27 -6 c-64 -13 -356 -26 -458 -20 -179 10 -224 44 -228 171 l-2 68 260 6
c295 6 329 13 396 80 64 64 73 95 73 254 1 161 -14 227 -67 296 -75 98 -138
119 -386 124 -126 3 -212 0 -266 -9z m314 -239 c62 -17 81 -47 88 -138 5 -70
4 -77 -20 -104 l-25 -30 -187 -3 -187 -3 4 88 c4 95 18 135 59 165 45 34 185
47 268 25z"/>
<path d="M11487 3789 c-4 -216 -7 -497 -7 -626 l0 -233 165 0 165 0 -2 623 -3
622 -156 3 -156 2 -6 -391z"/>
<path d="M12315 4169 c-201 -34 -304 -181 -305 -436 0 -138 30 -237 91 -299
l42 -43 -25 -10 c-136 -52 -157 -305 -35 -421 l37 -34 -55 -56 -55 -56 0 -94
c1 -214 57 -322 200 -389 54 -24 61 -25 319 -29 178 -3 284 0 325 8 221 43
296 166 283 461 -8 184 -41 264 -134 327 -79 54 -133 62 -403 62 -261 0 -294
5 -304 44 -8 31 -8 34 14 56 19 19 34 20 208 20 285 1 388 27 478 122 75 77
104 167 104 318 -1 78 -6 119 -20 160 -11 30 -19 58 -20 62 0 4 32 17 70 28
l71 21 -3 92 -3 92 -415 1 c-228 1 -438 -2 -465 -7z m415 -288 c71 -75 66
-238 -10 -306 -19 -17 -39 -20 -157 -23 -149 -4 -167 1 -203 61 -29 46 -29
209 -1 251 33 49 54 55 200 56 l134 0 37 -39z m52 -1010 l33 -29 0 -112 0
-112 -33 -29 -32 -29 -160 0 c-244 0 -250 5 -250 216 l0 124 205 0 205 0 32
-29z"/>
</g>
</svg>
